<?xml version="1.0" standalone="yes"?>
<svg width="1626" height="1347">
<path style="fill:#ffffff; stroke:none;" d="M0 0L0 1347L1626 1347L1626 0L0 0z"/>
<path style="fill:#b3b3b3; stroke:none;" d="M1041.33 413.667L1041.67 414.333L1041.33 413.667z"/>
<path style="fill:#838383; stroke:none;" d="M1040 415L1041 416L1040 415M1039 416L1035 422L1039 416z"/>
<path style="fill:#3b3b3b; stroke:none;" d="M1034 422L1031 429L1032 429L1036 422L1034 422z"/>
<path style="fill:#838383; stroke:none;" d="M1031 426L1032 427L1031 426z"/>
<path style="fill:#000000; stroke:none;" d="M1030 428L908.116 586L875.116 631L857 657L855 657C841.907 630.682 819.329 605.707 801.884 582C794.96 572.59 788.118 557.55 778.7 550.603C774.381 547.418 766.111 549 761 549L781.579 579L822.576 636L839 659L844.733 669L839 679L820.849 704L774.29 768L754 797C758.896 797 766.15 798.354 770.7 796.397C779.515 792.605 787.875 774.686 793.424 767L835.424 709C841.974 699.927 850.009 691.033 855 681L857 681L876.86 710L915.116 763L939.184 795.397L958 797C939.297 764.169 913.108 733.392 890.629 703C884.769 695.078 879.23 686.923 873.371 679C871.179 676.036 867.076 672.036 867.788 668C868.769 662.438 874.843 656.543 877.974 652C885.774 640.683 893.697 629.427 901.333 618C930.796 573.907 961.812 530.836 991.656 487C1001.23 472.937 1011.09 459.064 1020.66 445C1023.66 440.591 1030.75 433.458 1030 428z"/>
<path style="fill:#838383; stroke:none;" d="M1027 431L1028 432L1027 431M1027 434L1028 435L1027 434M1024 435L1025 436L1024 435M1025 437L1026 438L1025 437M1020 440L1021 441L1020 440M1023 440L1024 441L1023 440M1016 445L1017 446L1016 445M1013 449L1014 450L1013 449M1016 450L1017 451L1016 450M1014 453L1015 454L1014 453M1009 454L1010 455L1009 454M1012 456L1013 457L1012 456M1005 459L1006 460L1005 459M1002 463L1003 464L1002 463M1007 463L1008 464L1007 463M1005 466L1006 467L1005 466M998 468L999 469L998 468M1003 469L1004 470L1003 469M995 472L996 473L995 472M1001 472L1002 473L1001 472M994 473L995 474L994 473M991 477L992 478L991 477M996 479L997 480L996 479M987 482L988 483L987 482M994 482L995 483L994 482M992 485L993 486L992 485M984 486L985 487L984 486M980 491L981 492L980 491M987 492L988 493L987 492M985 495L986 496L985 495M976 496L977 497L976 496M983 498L984 499L983 498M973 500L974 501L973 500M981 501L982 502L981 501M969 505L970 506L969 505M976 508L977 509L976 508M965 510L966 511L965 510M974 511L975 512L974 511M962 514L963 515L962 514M972 514L973 515L972 514M958 519L959 520L958 519M954 524L955 525L954 524M965 524L966 525L965 524M963 527L964 528L963 527M951 528L952 529L951 528M961 530L962 531L961 530M947 533L948 534L947 533M944 537L945 538L944 537M956 537L957 538L956 537M943 538L944 539L943 538M954 540L955 541L954 540M940 542L941 543L940 542M952 543L953 544L952 543M950 546L951 547L950 546M936 547L937 548L936 547z"/>
<path style="fill:#dedede; stroke:none;" d="M369 548L369 797L370 797L370 621L370 571L369 548z"/>
<path style="fill:#3b3b3b; stroke:none;" d="M370 548L370 549L389 549L370 548M578 548L578 797L579 797L579 549L744 549L744 561L745 561L745 548L578 548M760 548L760 549L778 549L760 548z"/>
<path style="fill:#dedede; stroke:none;" d="M964 548L964 562L965 562L964 548z"/>
<path style="fill:#3b3b3b; stroke:none;" d="M965 548L965 549L1154 549L1154 560L1155 560L1155 548L965 548z"/>
<path style="fill:#000000; stroke:none;" d="M370 549L370 797L385 797L385 567L405.424 596L451.344 663L582.127 849L618.127 897L638 922L616.333 888L572.025 822L446 633L407 575L389.482 550.028L370 549M579 549L579 797L746 797L746 784L636 784L607 784C603.611 784 598.287 784.953 595.318 782.972C590.701 779.892 593 766.879 593 762L593 698C593 692.849 590.494 678.247 595.318 675.028C598.088 673.179 602.844 674 606 674L633 674L735 674L735 661L593 661L593 588C593 582.233 590.306 566.901 594.603 562.603C597.029 560.178 601.899 561 605 561L633 561L744 561L744 549L579 549M965 549L965 561L1052 561L1052 797L1067 797L1067 561L1154 561L1154 549L965 549z"/>
<path style="fill:#838383; stroke:none;" d="M390 550L391 551L390 550M761 550L762 551L761 550M933 551L934 552L933 551M780 552L781 553L780 552M392 553L393 554L392 553M763 553L764 554L763 553M945 553L946 554L945 553M394 556L395 557L394 556M943 556L944 557L943 556M766 557L767 558L766 557M928 558L929 559L928 558M396 559L397 560L396 559M785 559L786 560L785 559M941 559L942 560L941 559M768 560L769 561L768 560M1154 560L1125 561L1067 561L1067 562L1134 562L1154 560M594 561L594 562L745 562C733.306 557.093 712.729 561 700 561L594 561M965 561L965 562L1052 562L1025 561L965 561M398 562L399 563L398 562M593 562L593 661L594 661L594 592L593 562M925 562L926 563L925 562z"/>
<path style="fill:#dedede; stroke:none;" d="M1051 562L1051 797L1052 797L1052 631L1052 584L1051 562M1067 562L1067 797L1068 797L1068 631L1068 584L1067 562z"/>
<path style="fill:#838383; stroke:none;" d="M788 563L789 564L788 563M771 564L772 565L771 564M400 565L401 566L400 565M790 566L791 567L790 566M922 566L923 567L922 566M936 566L937 567L936 566z"/>
<path style="fill:#3b3b3b; stroke:none;" d="M385 567L385 638L386 638C386 615.726 381.842 588.663 387 567L385 567z"/>
<path style="fill:#838383; stroke:none;" d="M773 567L774 568L773 567M402 568L403 569L402 568M387 569L388 570L387 569M934 569L935 570L934 569M793 570L794 571L793 570M404 571L405 572L404 571M776 571L777 572L776 571M932 572L933 573L932 572M795 573L796 574L795 573M917 573L918 574L917 573M406 574L407 575L406 574M930 575L931 576L930 575M408 577L409 578L408 577M798 577L799 578L798 577M914 577L915 578L914 577M781 578L782 579L781 578M394 579L395 580L394 579M410 580L411 581L410 580M800 580L801 581L800 580M911 581L912 582L911 581M396 582L397 583L396 582M925 582L926 583L925 582M412 583L413 584L412 583M803 584L804 585L803 584M909 584L910 585L909 584M398 585L399 586L398 585M786 585L787 586L786 585M923 585L924 586L923 585M414 586L415 587L414 586M400 588L401 589L400 588M906 588L907 589L906 588M921 588L922 589L921 588M416 589L417 590L416 589M789 589L790 590L789 589M808 591L809 592L808 591M418 592L419 593L418 592M791 592L792 593L791 592M903 592L904 593L903 592M420 595L421 596L420 595M794 596L795 597L794 596M407 598L408 599L407 598M422 598L423 599L422 598M813 598L814 599L813 598M914 598L915 599L914 598M796 599L797 600L796 599M898 599L899 600L898 599M409 601L410 602L409 601M424 601L425 602L424 601M912 601L913 602L912 601M799 603L800 604L799 603M895 603L896 604L895 603M411 604L412 605L411 604M426 604L427 605L426 604M910 604L911 605L910 604M818 605L819 606L818 605M801 606L802 607L801 606M413 607L414 608L413 607M428 607L429 608L428 607M892 607L893 608L892 607M430 610L431 611L430 610M804 610L805 611L804 610M905 611L906 612L905 611M823 612L824 613L823 612M806 613L807 614L806 613M418 614L419 615L418 614M887 614L888 615L887 614M903 614L904 615L903 614M826 616L827 617L826 616M420 617L421 618L420 617M809 617L810 618L809 617M901 617L902 618L901 617M884 618L885 619L884 618M828 619L829 620L828 619M422 620L423 621L422 620M899 620L900 621L899 620M881 622L882 623L881 622M424 623L425 624L424 623M831 623L832 624L831 623M814 624L815 625L814 624M833 626L834 627L833 626M894 627L895 628L894 627M876 629L877 630L876 629M836 630L837 631L836 630M892 630L893 631L892 630M819 631L820 632L819 631M431 633L432 634L431 633M838 633L839 634L838 633M873 633L874 634L873 633M890 633L891 634L890 633M822 635L823 636L822 635M433 636L434 637L433 636M841 637L842 638L841 637M870 637L871 638L870 637M385.333 638.667L385.667 639.333L385.333 638.667M824 638L825 639L824 638M435 639L436 640L435 639M843 640L844 641L843 640M868 640L869 641L868 640M885 640L886 641L885 640M385 641L385 644L386 644L385 641M437 642L438 643L437 642M827 642L828 643L827 642M883 643L884 644L883 643M846 644L847 645L846 644M865 644L866 645L865 644M385 645L385 715L386 715L386 667L385 645M829 645L830 646L829 645M881 646L882 647L881 646M862 648L863 649L862 648M832 649L833 650L832 649M879 649L880 650L879 649M851 651L852 652L851 651M444 652L445 653L444 652M834 652L835 653L834 652M859 652L860 653L859 652M446 655L447 656L446 655M837 656L838 657L837 656M874 656L875 657L874 656M448 658L449 659L448 658M872 659L873 660L872 659M450 661L451 662L450 661z"/>
<path style="fill:#3b3b3b; stroke:none;" d="M735 661L735 674L736 674L735 661z"/>
<path style="fill:#838383; stroke:none;" d="M870 662L871 663L870 662M842 663L843 664L842 663M455 668L456 669L455 668z"/>
<path style="fill:#b3b3b3; stroke:none;" d="M866.333 668.667L866.667 669.333L866.333 668.667z"/>
<path style="fill:#838383; stroke:none;" d="M845 670L846 671L845 670M457 671L458 672L457 671M459 674L460 675L459 674z"/>
<path style="fill:#b3b3b3; stroke:none;" d="M594 674L594 675L736 675C724.782 670.293 705.206 674 693 674L594 674z"/>
<path style="fill:#838383; stroke:none;" d="M842 674L843 675L842 674M593 675L593 783L594 783L594 708L593 675M870 675L871 676L870 675M461 677L462 678L461 677M873 679L874 680L873 679M837 681L838 682L837 681M856 681L857 682L856 681M854 682L855 683L854 682M479 683L480 684L479 683M834 685L835 686L834 685M859 685L860 686L859 685M851 686L852 687L851 686M878 686L879 687L878 686M468 687L469 688L468 687M861 688L862 689L861 688M483 689L484 690L483 689M470 690L471 691L470 690M485 692L486 693L485 692M829 692L830 693L829 692M864 692L865 693L864 692M472 693L473 694L472 693M846 693L847 694L846 693M883 693L884 694L883 693M487 695L488 696L487 695M474 696L475 697L474 696M826 696L827 697L826 696M843 697L844 698L843 697M886 697L887 698L886 697M489 698L490 699L489 698M869 699L870 700L869 699M841 700L842 701L841 700M888 700L889 701L888 700M491 701L492 702L491 701M821 703L822 704L821 703M872 703L873 704L872 703M493 704L494 705L493 704M838 704L839 705L838 704M891 704L892 705L891 704M481 706L482 707L481 706M874 706L875 707L874 706M495 707L496 708L495 707M818 707L819 708L818 707M835 708L836 709L835 708M483 709L484 710L483 709M497 710L498 711L497 710M877 710L878 711L877 710M833 711L834 712L833 711M896 711L897 712L896 711M485 712L486 713L485 712M499 713L500 714L499 713M813 714L814 715L813 714z"/>
<path style="fill:#b3b3b3; stroke:none;" d="M385 715L385 764L386 764C386 750.212 390.309 727.652 385 715z"/>
<path style="fill:#838383; stroke:none;" d="M487 715L488 716L487 715M830 715L831 716L830 715M899 715L900 716L899 715M501 716L502 717L501 716M882 717L883 718L882 717M810 718L811 719L810 718M901 718L902 719L901 718M503 719L504 720L503 719M885 721L886 722L885 721M505 722L506 723L505 722M825 722L826 723L825 722M904 722L905 723L904 722M887 724L888 725L887 724M1227.67 724.333L1228.33 724.667L1227.67 724.333z"/>
<path style="fill:#3b3b3b; stroke:none;" d="M1229 724L1229 725L1236 725L1229 724z"/>
<path style="fill:#838383; stroke:none;" d="M1236.67 724.333L1237.33 724.667L1236.67 724.333M494 725L495 726L494 725M507 725L508 726L507 725M805 725L806 726L805 725z"/>
<path style="fill:#b3b3b3; stroke:none;" d="M1192 725L1192 766L1193 766L1193 737C1193 732.794 1192.17 728.482 1196 726L1192 725z"/>
<path style="fill:#000000; stroke:none;" d="M1193 726C1193 737.872 1193.94 750.174 1192.91 762C1192.51 766.505 1190.05 771.555 1185 772.098C1178.6 772.786 1175.97 765.083 1169 765C1169.16 779.205 1189.58 786.788 1197.99 773.906C1205.42 762.526 1201 739.071 1201 726L1193 726z"/>
<path style="fill:#838383; stroke:none;" d="M1197 725L1197 726L1201 726L1197 725M1223.67 725.333L1224.33 725.667L1223.67 725.333z"/>
<path style="fill:#000000; stroke:none;" d="M1212 765C1217.57 784.187 1253.36 786.671 1252.54 763C1252.11 750.535 1239.16 749.787 1230 746.637C1226.09 745.292 1220.14 742.058 1222.85 737.044C1230.12 723.576 1242.9 738.968 1252 739C1247.5 723.618 1219.1 716.956 1214.21 736C1208.78 757.188 1234.34 750.628 1242.52 761.189C1249.02 769.568 1234.12 774.45 1228 772.107C1221.4 769.577 1219.74 765.027 1212 765z"/>
<path style="fill:#838383; stroke:none;" d="M822 726L823 727L822 726M1243 726L1244 727L1243 726M496 728L497 729L496 728M509 728L510 729L509 728M890 728L891 729L890 728M1246 728L1247 729L1246 728M802 729L803 730L802 729M820 729L821 730L820 729M909 729L910 730L909 729M1247 729L1248 730L1247 729M1248 730L1249 731L1248 730M498 731L499 732L498 731M511 731L512 732L511 731M892 731L893 732L892 731M1230 731L1230 732L1235 732L1230 731M1237.67 732.333L1238.33 732.667L1237.67 732.333M817 733L818 734L817 733M912 733L913 734L912 733M1214.33 733.667L1214.67 734.333L1214.33 733.667M1250 733L1251 734L1250 733M500 734L501 735L500 734M513 734L514 735L513 734M1241 734L1242 735L1241 734M895 735L896 736L895 735M797 736L798 737L797 736M914 736L915 737L914 736M1213 736L1213 739L1214 739L1213 736M1222 736L1223 737L1222 736z"/>
<path style="fill:#3b3b3b; stroke:none;" d="M1251.33 736.667L1251.67 737.333L1251.33 736.667z"/>
<path style="fill:#838383; stroke:none;" d="M515 737L516 738L515 737M814 737L815 738L814 737z"/>
<path style="fill:#b3b3b3; stroke:none;" d="M1243.33 737.667L1243.67 738.333L1243.33 737.667z"/>
<path style="fill:#3b3b3b; stroke:none;" d="M1221 738L1221 741L1222 741L1221 738z"/>
<path style="fill:#838383; stroke:none;" d="M1244 739L1244 740L1252 740L1244 739M517 740L518 741L517 740M794 740L795 741L794 740M812 740L813 741L812 740M917 740L918 741L917 740M1213 740L1213 744L1214 744L1213 740M505 741L506 742L505 741M900 742L901 743L900 742M1222 742L1223 743L1222 742M519 743L520 744L519 743M1223 743L1224 744L1223 743M507 744L508 745L507 744M809 744L810 745L809 744M1224 744L1225 745L1224 744M1226 745L1227 746L1226 745M521 746L522 747L521 746M903 746L904 747L903 746M1229 746L1230 747L1229 746M509 747L510 748L509 747M789 747L790 748L789 747M922 747L923 748L922 747M1232.67 747.333L1233.33 747.667L1232.67 747.333M1237 748L1238 749L1237 748M523 749L524 750L523 749M905 749L906 750L905 749z"/>
<path style="fill:#b3b3b3; stroke:none;" d="M1240.67 749.333L1241.33 749.667L1240.67 749.333z"/>
<path style="fill:#838383; stroke:none;" d="M511 750L512 751L511 750M1243 750L1244 751L1243 750M786 751L787 752L786 751M804 751L805 752L804 751M925 751L926 752L925 751M1245 751L1246 752L1245 751M525 752L526 753L525 752M1247 752L1248 753L1247 752M908 753L909 754L908 753M1248 753L1249 754L1248 753M927 754L928 755L927 754M1225.67 754.333L1226.33 754.667L1225.67 754.333M527 755L528 756L527 755M801 755L802 756L801 755M1229.67 755.333L1230.33 755.667L1229.67 755.333M1250 755L1251 756L1250 755M1233.67 756.333L1234.33 756.667L1233.67 756.333z"/>
<path style="fill:#3b3b3b; stroke:none;" d="M1237.67 757.333L1238.33 757.667L1237.67 757.333z"/>
<path style="fill:#838383; stroke:none;" d="M529 758L530 759L529 758M781 758L782 759L781 758M930 758L931 759L930 758z"/>
<path style="fill:#3b3b3b; stroke:none;" d="M1252 759L1252 762L1253 762L1252 759z"/>
<path style="fill:#838383; stroke:none;" d="M518 760L519 761L518 760M913 760L914 761L913 760M531 761L532 762L531 761M778 762L779 763L778 762M796 762L797 763L796 762M520 763L521 764L520 763M1244 763L1244 766L1245 766L1244 763M533 764L534 765L533 764M916 764L917 765L916 764z"/>
<path style="fill:#b3b3b3; stroke:none;" d="M1212 764L1212 765L1220 765L1212 764z"/>
<path style="fill:#dedede; stroke:none;" d="M385 765L385 797L386 797L385 765z"/>
<path style="fill:#838383; stroke:none;" d="M935 765L936 766L935 765z"/>
<path style="fill:#3b3b3b; stroke:none;" d="M1168 765L1168 768L1169 768L1168 765z"/>
<path style="fill:#838383; stroke:none;" d="M1176.33 765.667L1176.67 766.333L1176.33 765.667z"/>
<path style="fill:#3b3b3b; stroke:none;" d="M1200 765L1200 768L1201 768L1200 765M1252.33 765.667L1252.67 766.333L1252.33 765.667z"/>
<path style="fill:#838383; stroke:none;" d="M522 766L523 767L522 766M793 766L794 767L793 766z"/>
<path style="fill:#3b3b3b; stroke:none;" d="M1212.33 766.667L1212.67 767.333L1212.33 766.667z"/>
<path style="fill:#838383; stroke:none;" d="M535 767L536 768L535 767M918 767L919 768L918 767z"/>
<path style="fill:#b3b3b3; stroke:none;" d="M1252.33 767.667L1252.67 768.333L1252.33 767.667M1152.67 768.333L1153.33 768.667L1152.67 768.333M1168.33 768.667L1168.67 769.333L1168.33 768.667z"/>
<path style="fill:#838383; stroke:none;" d="M1191 768L1192 769L1191 768M524 769L525 770L524 769M773 769L774 770L773 769M791 769L792 770L791 769M938 769L939 770L938 769z"/>
<path style="fill:#000000; stroke:none;" d="M1150.32 770.032C1145.21 773.332 1150.49 781.32 1155.68 777.968C1160.79 774.668 1155.51 766.68 1150.32 770.032z"/>
<path style="fill:#838383; stroke:none;" d="M1242 769L1243 770L1242 769M537 770L538 771L537 770M1178 770L1179 771L1178 770M1213 770L1214 771L1213 770M1241 770L1242 771L1241 770M1251 770L1252 771L1251 770M921 771L922 772L921 771M1199 771L1200 772L1199 771M1225 771L1226 772L1225 771M940 772L941 773L940 772M1158 772L1158 776L1159 776L1158 772M1183 772L1183 773L1186 773L1183 772M1214 772L1215 773L1214 772z"/>
<path style="fill:#3b3b3b; stroke:none;" d="M1236.67 772.333L1237.33 772.667L1236.67 772.333z"/>
<path style="fill:#838383; stroke:none;" d="M539 773L540 774L539 773M770 773L771 774L770 773M788 773L789 774L788 773z"/>
<path style="fill:#b3b3b3; stroke:none;" d="M1147.33 773.667L1147.67 774.333L1147.33 773.667z"/>
<path style="fill:#838383; stroke:none;" d="M1170 773L1171 774L1170 773M1198 773L1199 774L1198 773M541 776L542 777L541 776M943 776L944 777L943 776M1218 776L1219 777L1218 776M1246 776L1247 777L1246 776M785 777L786 778L785 777M1174 777L1175 778L1174 777M1194 777L1195 778L1194 777M926 778L927 779L926 778M1156 778L1157 779L1156 778M1222 778L1223 779L1222 778M1242 778L1243 779L1242 778M531 779L532 780L531 779M543 779L544 780L543 779M1151 779L1151 780L1155 780L1151 779z"/>
<path style="fill:#3b3b3b; stroke:none;" d="M1178.67 779.333L1179.33 779.667L1178.67 779.333z"/>
<path style="fill:#838383; stroke:none;" d="M1190 779L1191 780L1190 779M1224.67 779.333L1225.33 779.667L1224.67 779.333z"/>
<path style="fill:#b3b3b3; stroke:none;" d="M1239.67 779.333L1240.33 779.667L1239.67 779.333z"/>
<path style="fill:#838383; stroke:none;" d="M765 780L766 781L765 780M783 780L784 781L783 780z"/>
<path style="fill:#b3b3b3; stroke:none;" d="M1182 780L1182 781L1186 781L1182 780M1230 780L1230 781L1235 781L1230 780z"/>
<path style="fill:#838383; stroke:none;" d="M533 782L534 783L533 782M545 782L546 783L545 782M929 782L930 783L929 782z"/>
<path style="fill:#b3b3b3; stroke:none;" d="M594 783L594 784L746 784C734.068 778.993 712.991 783 700 783L594 783z"/>
<path style="fill:#838383; stroke:none;" d="M948 783L949 784L948 783M746 784L746 797L747 797L746 784M762 784L763 785L762 784M780 784L781 785L780 784M535 785L536 786L535 785M547 785L548 786L547 785M931 785L932 786L931 785M951 787L952 788L951 787M537 788L538 789L537 788M549 788L550 789L549 788M934 789L935 790L934 789M953 790L954 791L953 790M551 791L552 792L551 791M757 791L758 792L757 791M775 791L776 792L775 791M553 794L554 795L553 794M956 794L957 795L956 794M542 795L543 796L542 795M754 795L755 796L754 795M772 795L773 796L772 795M939 796L940 797L939 796M555 797L556 798L555 797M544 798L545 799L544 798M557 800L558 801L557 800M547 802L548 803L547 802M559 803L560 804L559 803M550 806L551 807L550 806M561 806L562 807L561 806M563 809L564 810L563 809M553 810L554 811L553 810M565 812L566 813L565 812M556 814L557 815L556 814M567 815L568 816L567 815M559 818L560 819L559 818M569 818L570 819L569 818M571 821L572 822L571 821M562 822L563 823L562 822M573 824L574 825L573 824M565 826L566 827L565 826M568 830L569 831L568 830M577 830L578 831L577 830M571 834L572 835L571 834M574 838L575 839L574 838M577 842L578 843L577 842M585 842L586 843L585 842M580 846L581 847L580 846M583 850L584 851L583 850M586 854L587 855L586 854M589 858L590 859L589 858M592 862L593 863L592 862M595 866L596 867L595 866M598 870L599 871L598 870M601 874L602 875L601 874M604 878L605 879L604 878M607 882L608 883L607 882M610 886L611 887L610 886M613 890L614 891L613 890M616 894L617 895L616 894M619 898L620 899L619 898M624 900L625 901L624 900M622 902L623 903L622 902M626 903L627 904L626 903M625 906L626 907L625 906M628 906L629 907L628 906M630 909L631 910L630 909M628 910L629 911L628 910M632 912L633 913L632 912M631 914L632 915L631 914M634 915L635 916L634 915M634 918L635 919L634 918M636 918L637 919L636 918M638 921L637 923L638 921z"/>
<path style="fill:#3b3b3b; stroke:none;" d="M638 922L643 929L638 922z"/>
<path style="fill:#838383; stroke:none;" d="M643 929L645 932L643 929z"/>
<path style="fill:#3b3b3b; stroke:none;" d="M645 932L646 933L645 932z"/>
<path style="fill:#838383; stroke:none;" d="M645 933L647 935L647 933L645 933M647 935L648 936L647 935z"/>
<path style="fill:#b3b3b3; stroke:none;" d="M648.333 936.667L648.667 937.333L648.333 936.667z"/>
</svg>
