<?xml version="1.0" standalone="yes"?>
<svg width="1000" height="600">
<path style="fill:#ffffff; stroke:none;" d="M0 0L0 600L1000 600L1000 0L0 0z"/>
<path style="fill:#2f2f2f; stroke:none;" d="M638.318 52.071C632.797 55.3325 636 77.1351 636 83L636 147C636 154.85 638.46 167.655 635.397 174.923C633.479 179.474 629.054 176.855 626 175.149C619.29 171.4 611.215 164.456 603 166.419C596.747 167.913 590.551 172.982 585 176.15C572.286 183.408 559.694 190.863 547 198.15C539.207 202.623 528.404 206.559 522.318 213.326C517.677 218.484 520 230.49 520 237L520 294C520 300.085 517.978 310.697 521.603 315.896C524.735 320.386 531.363 322.95 536 325.576C546.711 331.641 557.326 337.866 568 344C579.444 350.577 599.536 368.508 613 362.176C632.914 352.81 652.09 340.06 671 328.799C677.163 325.129 688.406 321.454 691.972 314.907C694.276 310.676 693 303.673 693 299L693 264L693 135L693 96C693 91.463 694.34 84.2621 691.972 80.2098C687.423 72.4237 670.727 66.9417 663 62.5756C658.124 59.8205 643.957 48.7396 638.318 52.071z"/>
<path style="fill:#cacaca; stroke:none;" d="M635 54L635 177L636 177L636 91C636 80.3661 639.108 63.789 635 54z"/>
<path style="fill:#9f9f9f; stroke:none;" d="M655 58L656 59L655 58z"/>
<path style="fill:#959595; stroke:none;" d="M662 62L663 63L662 62z"/>
<path style="fill:#9f9f9f; stroke:none;" d="M671 67L672 68L671 67z"/>
<path style="fill:#4a4a4a; stroke:none;" d="M693 82L693 312L694 312L694 150L694 103L693 82z"/>
<path style="fill:#d9d9d9; stroke:none;" d="M694 84L694 312L695 312L695 151L695 105L694 84z"/>
<path style="fill:#777777; stroke:none;" d="M176 163L176 164L182 164L176 163z"/>
<path style="fill:#303030; stroke:none;" d="M102 206L102 340C114.551 336.384 126.684 327.067 138 320.579C142.176 318.184 147.909 315.955 149.486 310.96C153.576 298.004 150 278.596 150 265C150 259.821 148.776 252.75 151.318 248.04C154.179 242.74 161.062 240.14 166 237.201C169.827 234.922 175.373 230.514 180 230.552C184.276 230.588 189.367 234.821 193 236.861C198.197 239.779 204.775 242.771 207.991 248.015C210.996 252.917 210 259.503 210 265C210 278.17 205.834 299.74 210.742 311.96C213.737 319.415 227.456 323.882 234 327.8C239.818 331.284 256.711 344.721 263.686 341.392C268.963 338.873 266 317.298 266 312L266 236C266 228.217 268.896 214.289 261.941 209.093C243.822 195.557 221.63 185.658 202 174.421C194.289 170.007 185.532 162.266 176 164.394C170.021 165.728 164.294 170.457 159 173.435C145.268 181.162 131.814 189.429 118 197C112.786 199.858 107.705 204.466 102 206z"/>
<path style="fill:#c4e2c8; stroke:none;" d="M390 164L390 165L395 165L390 164z"/>
<path style="fill:#767676; stroke:none;" d="M817 164L817 165L822 165L817 164z"/>
<path style="fill:#52af5e; stroke:none;" d="M360 182C365.561 189.702 363 202.856 363 212L363 272C363 280.476 365.104 292.094 362 300L361 297L360 297L369.626 317L394 362L390 362L390 363L411 354L411 353L408 353L412 345L408 346L408 336L411 336L411 320L408 320L408 312L411 312L411 304L408 304L408 296L411 296L411 288L408 288L408 240L411 240L411 232L408 232C408 214.536 412.237 192.686 402.568 177.715C399.93 173.63 397.649 165.82 391.981 165.333C382.657 164.532 367.839 177.377 360 182z"/>
<path style="fill:#3ea057; stroke:none;" d="M394 165L394 166C412.759 182.817 408 209.403 408 232L411 232L411 240L408 240L408 288L411 288L411 296L408 296L408 304L411 304L411 312L408 312L408 320L411 320L411 336L408 336L408 346L412 345L408 353C415.848 352.154 431.36 345.457 434.852 337.896C438.613 329.752 436 315.859 436 307L436 236L437 236L450 260L452 260L476 214L478 215L479 215C475.256 208.157 465.507 204.674 459 200.799C445.171 192.565 430.923 184.959 417 176.858C409.913 172.735 402.105 166.563 394 165z"/>
<path style="fill:#9d9d9d; stroke:none;" d="M604 165L604 166L609 166L604 165z"/>
<path style="fill:#303030; stroke:none;" d="M816 165.649C808.034 168.025 800.129 174.181 793 178.397C780.434 185.828 767.547 192.729 755 200.201C749.213 203.647 738.081 207.255 734.858 213.518C731.527 219.992 734 232.802 734 240L734 289C734 296.137 732.556 305.065 734.318 311.996C736.203 319.414 747.662 322.582 753.576 326.109C769.549 335.636 785.783 344.757 802 353.861C809.998 358.351 816.571 364.057 826 360.123C833.31 357.074 840.016 352.49 847 348.78C852.93 345.63 871.322 339.103 872.623 331.91C873.982 324.402 855.266 317.481 850 314.424C836.362 306.509 822.673 298.699 809 290.85C803.698 287.807 794.789 284.706 791.318 279.471C788.701 275.525 790 268.516 790 264C790 259.196 788.74 252.257 791.603 248.093C795.321 242.687 813.328 231.142 820 231.643C825.36 232.045 831.472 237.345 836 239.988C839.872 242.249 845.533 243.978 847.821 248.105C851.681 255.067 844.855 268.768 850.603 274.393C854.11 277.824 859.794 273.673 863 271.85C871.834 266.824 891.892 259.707 896.972 250.815C899.552 246.299 898 238.052 898 233C898 226.413 900.379 213.996 896.972 208.213C894.416 203.873 887.224 201.511 883 199.139C872.258 193.108 861.693 186.703 851 180.573C841.754 175.272 827.381 162.254 816 165.649z"/>
<path style="fill:#9d9d9d; stroke:none;" d="M166 169L167 170L166 169z"/>
<path style="fill:#9a9a9a; stroke:none;" d="M159 173L160 174L159 173z"/>
<path style="fill:#8c8c8c; stroke:none;" d="M203 175L204 176L203 175z"/>
<path style="fill:#8d8d8d; stroke:none;" d="M845 177L846 178L845 177z"/>
<path style="fill:#9a9a9a; stroke:none;" d="M631 178L631 179L634 179L631 178z"/>
<path style="fill:#c8c8c8; stroke:none;" d="M850.667 180.333L851.333 180.667L850.667 180.333z"/>
<path style="fill:#7dbb8a; stroke:none;" d="M357 184L360 182L357 184z"/>
<path style="fill:#32bb47; stroke:none;" d="M347 189L347 190L350 190L352 198L352 199L352 200C347.873 203.606 350 214.783 350 220C350 239.432 346.729 261.518 352 280L351 280L348 273L347 273L359 298L361 297L362 300C365.445 293.598 363 281.301 363 274L363 212C363 206.052 365.921 189.243 361.972 184.643C358.795 180.943 350.133 187.538 347 189z"/>
<path style="fill:#1abd3e; stroke:none;" d="M339 194L339 195L343 195L343 196L340 199L340 200C343.494 204.612 342 212.408 342 218C342 231.871 338.428 251.355 344 264C341.098 266.822 344.552 270.878 346 274L348 273L351 280L352 280C348.646 261.117 350 241.524 350 222C350 215.577 348.004 205.274 352 200L352 199L352 198L350 190L339 194z"/>
<path style="fill:#8e8e8e; stroke:none;" d="M231 191L232 192L231 191z"/>
<path style="fill:#8cc399; stroke:none;" d="M446.667 194.333L447.333 194.667L446.667 194.333z"/>
<path style="fill:#959595; stroke:none;" d="M238 195L239 196L238 195z"/>
<path style="fill:#00c037; stroke:none;" d="M311 210L341 266L344 264C339.735 249.746 342 232.899 342 218C342 213.099 343.899 203.407 340 200L340 199L343 196C334.213 192.424 318.701 206.045 311 210z"/>
<path style="fill:#9b9b9b; stroke:none;" d="M119 196L120 197L119 196z"/>
<path style="fill:#c4c4c4; stroke:none;" d="M241.667 197.333L242.333 197.667L241.667 197.333z"/>
<path style="fill:#66d883; stroke:none;" d="M331.667 198.333L332.333 198.667L331.667 198.333z"/>
<path style="fill:#909090; stroke:none;" d="M890 203L891 204L890 203z"/>
<path style="fill:#5c5c5c; stroke:none;" d="M103 205L103 206L107 205L103 205z"/>
<path style="fill:#49ba5e; stroke:none;" d="M316 208L319 206L316 208z"/>
<path style="fill:#595959; stroke:none;" d="M101 207L101 307C101 314.328 97.4411 336.143 103 341L102 307L102 242L101 207M898 208L898 251L899 251C899 238.781 902.711 219.225 898 208z"/>
<path style="fill:#009b44; stroke:none;" d="M308 314L330.811 275L338.127 260.039L331.938 248L312 211C304.069 215 307 228.362 307 236C307 260.405 302.351 290.271 308 314z"/>
<path style="fill:#919191; stroke:none;" d="M524 211L525 212L524 211z"/>
<path style="fill:#888888; stroke:none;" d="M735 212L736 213L735 212z"/>
<path style="fill:#424242; stroke:none;" d="M266 213L266 340L267 340L267 251C267 240.104 270.208 223.027 266 213z"/>
<path style="fill:#008d3e; stroke:none;" d="M476 214L452 260L450 260L440 245L440 256L442 275L442 314L441 333C448.166 334.746 454.079 329.03 460 325.654C465.332 322.614 474.765 319.284 477.972 313.79C480.687 309.139 479 299.296 479 294C479.001 279.006 480 264.045 480 249C480 241.386 483.875 217.165 476 214z"/>
<path style="fill:#a2a2a2; stroke:none;" d="M733.333 214.667L733.667 215.333L733.333 214.667z"/>
<path style="fill:#c1c1c1; stroke:none;" d="M267 215L267 339L268 339L268 253C268 242.104 271.208 225.027 267 215z"/>
<path style="fill:#69bf80; stroke:none;" d="M306 215L306 312L307 312L307 245L306 215z"/>
<path style="fill:#c7cbca; stroke:none;" d="M480 216L480 311L481 311L481 245L480 216z"/>
<path style="fill:#8f8f8f; stroke:none;" d="M519.333 216.667L519.667 217.333L519.333 216.667z"/>
<path style="fill:#d9d9d9; stroke:none;" d="M732 216L732 310L733 310L733 245L732 216z"/>
<path style="fill:#4a4a4a; stroke:none;" d="M733 216L733 312L734 312L734 245L733 216z"/>
<path style="fill:#4b4b4b; stroke:none;" d="M519 218L519 312L520 312L520 247L519 218z"/>
<path style="fill:#909090; stroke:none;" d="M177 230L177 231L183 231L177 230z"/>
<path style="fill:#6c6c6c; stroke:none;" d="M605 231L605 232L608 232L605 231z"/>
<path style="fill:#ffffff; stroke:none;" d="M604.17 232.731C597.729 234.519 581.144 242.767 578.603 249.093C576.381 254.626 575.629 277.441 579.028 282.366C581.907 286.538 589.641 289.421 594 291.825C597.979 294.02 603.206 298.376 608 297.296C614.109 295.92 632.956 286.129 634.682 279.896C636.41 273.656 637.334 253.882 633.972 248.329C631.198 243.745 623.5 241.001 619 238.421C614.865 236.051 609.236 231.325 604.17 232.731z"/>
<path style="fill:#939393; stroke:none;" d="M815 232L816 233L815 232z"/>
<path style="fill:#c6c6c6; stroke:none;" d="M600.667 234.333L601.333 234.667L600.667 234.333z"/>
<path style="fill:#1b984c; stroke:none;" d="M436 236L436 303L434 340L444 335L441 333C443.618 327.821 442 320.755 442 315L442 274C442 269.099 443.899 259.407 440 256L440 245L444 248L436 236z"/>
<path style="fill:#9c9c9c; stroke:none;" d="M194 237L195 238L194 237z"/>
<path style="fill:#878787; stroke:none;" d="M595 237L596 238L595 237z"/>
<path style="fill:#9b9b9b; stroke:none;" d="M627 243L628 244L627 243z"/>
<path style="fill:#41a05e; stroke:none;" d="M819 244.924C797.667 248.25 799.014 284.258 821 281.502C838.624 279.292 842.992 257.609 829 249.104C826.071 247.324 822.672 244.351 819 244.924z"/>
<path style="fill:#8b8b8b; stroke:none;" d="M152 245L153 246L152 245z"/>
<path style="fill:#949494; stroke:none;" d="M846 245L847 246L846 245z"/>
<path style="fill:#a1a1a1; stroke:none;" d="M578 247L579 248L578 247z"/>
<path style="fill:#767676; stroke:none;" d="M150 248L150 309L151 309L151 268L150 248z"/>
<path style="fill:#d8d8d8; stroke:none;" d="M208 248L208 308L209 308L209 267L208 248z"/>
<path style="fill:#c9c9c9; stroke:none;" d="M577 248L577 282L578 282L577 248z"/>
<path style="fill:#9c9c9c; stroke:none;" d="M635 248L635 282L636 282L635 248z"/>
<path style="fill:#8f8f8f; stroke:none;" d="M790 248L790 280L791 280L790 248z"/>
<path style="fill:#c7c7c7; stroke:none;" d="M848 248L848 273L849 273L848 248z"/>
<path style="fill:#4f4f4f; stroke:none;" d="M209 250L209 310L210 310L210 269L209 250z"/>
<path style="fill:#8fc9a1; stroke:none;" d="M830.667 250.333L831.333 250.667L830.667 250.333z"/>
<path style="fill:#8cba9d; stroke:none;" d="M803 253L803 273L804 273L805 253L803 253z"/>
<path style="fill:#878787; stroke:none;" d="M887 257L888 258L887 257z"/>
<path style="fill:#018635; stroke:none;" d="M338 262C331.269 274.135 324.25 286.289 317.072 298.166C314.723 302.053 308.889 309.297 309.288 314.062C309.696 318.936 324.175 324.738 328 326.989C342.593 335.578 357.317 344.003 372 352.421C378.831 356.338 385.926 361.744 394 362L374.873 326L340 262L338 262z"/>
<path style="fill:#939393; stroke:none;" d="M863 271L864 272L863 271z"/>
<path style="fill:#b1b1b1; stroke:none;" d="M851 276L851 277L856 277L851 276z"/>
<path style="fill:#249754; stroke:none;" d="M479 280L479 312L480 312L479 280z"/>
<path style="fill:#b6d5c3; stroke:none;" d="M819.667 282.333L820.333 282.667L819.667 282.333z"/>
<path style="fill:#9a9a9a; stroke:none;" d="M625 287L626 288L625 287z"/>
<path style="fill:#989898; stroke:none;" d="M811 292L812 293L811 292z"/>
<path style="fill:#9b9b9b; stroke:none;" d="M599 294L600 295L599 294z"/>
<path style="fill:#bfbfbf; stroke:none;" d="M821.667 298.333L822.333 298.667L821.667 298.333z"/>
<path style="fill:#898989; stroke:none;" d="M823 299L824 300L823 299z"/>
<path style="fill:#c3c3c3; stroke:none;" d="M150.333 309.667L150.667 310.333L150.333 309.667z"/>
<path style="fill:#bdbdbd; stroke:none;" d="M209.333 310.667L209.667 311.333L209.333 310.667z"/>
<path style="fill:#8d8d8d; stroke:none;" d="M844 311L845 312L844 311z"/>
<path style="fill:#9bd3a2; stroke:none;" d="M307.333 312.667L307.667 313.333L307.333 312.667z"/>
<path style="fill:#afafaf; stroke:none;" d="M693.333 312.667L693.667 313.333L693.333 312.667z"/>
<path style="fill:#8d8d8d; stroke:none;" d="M148 313L149 314L148 313z"/>
<path style="fill:#8f8f8f; stroke:none;" d="M851 315L852 316L851 315z"/>
<path style="fill:#5da47a; stroke:none;" d="M313.667 318.333L314.333 318.667L313.667 318.333z"/>
<path style="fill:#cacaca; stroke:none;" d="M856.667 318.333L857.333 318.667L856.667 318.333z"/>
<path style="fill:#b5f7c7; stroke:none;" d="M470.667 319.333L471.333 319.667L470.667 319.333z"/>
<path style="fill:#74bb91; stroke:none;" d="M318.667 321.333L319.333 321.667L318.667 321.333z"/>
<path style="fill:#a2a2a2; stroke:none;" d="M134 322L135 323L134 322z"/>
<path style="fill:#6a6a6a; stroke:none;" d="M752.667 325.333L753.333 325.667L752.667 325.333z"/>
<path style="fill:#badfbd; stroke:none;" d="M456.667 327.333L457.333 327.667L456.667 327.333z"/>
<path style="fill:#a7a7a7; stroke:none;" d="M671 328L672 329L671 328z"/>
<path style="fill:#a3a3a3; stroke:none;" d="M543 329L544 330L543 329z"/>
<path style="fill:#949494; stroke:none;" d="M669 329L670 330L669 329z"/>
<path style="fill:#606060; stroke:none;" d="M873 329L873 333L874 333L873 329z"/>
<path style="fill:#979797; stroke:none;" d="M550 333L551 334L550 333z"/>
<path style="fill:#8db098; stroke:none;" d="M343 335L344 336L343 335z"/>
<path style="fill:#b4d0c2; stroke:none;" d="M440.667 336.333L441.333 336.667L440.667 336.333z"/>
<path style="fill:#a5a5a5; stroke:none;" d="M775 338L776 339L775 338z"/>
<path style="fill:#81bf96; stroke:none;" d="M350 339L351 340L350 339z"/>
<path style="fill:#949494; stroke:none;" d="M863 339L864 340L863 339z"/>
<path style="fill:#6b6b6b; stroke:none;" d="M256.667 340.333L257.333 340.667L256.667 340.333z"/>
<path style="fill:#848484; stroke:none;" d="M265 341L266 342L265 341z"/>
<path style="fill:#46a771; stroke:none;" d="M353.667 341.333L354.333 341.667L353.667 341.333z"/>
<path style="fill:#606060; stroke:none;" d="M260 342L260 343L264 343L260 342z"/>
<path style="fill:#479e69; stroke:none;" d="M360.667 345.333L361.333 345.667L360.667 345.333z"/>
<path style="fill:#c9e0d0; stroke:none;" d="M492 348L492 349L498 349L492 348z"/>
<path style="fill:#41a05e; stroke:none;" d="M423 508C424.041 511.562 428.219 513.072 431.259 515.111C441.742 522.141 462.908 523.935 468.769 510C472.929 500.108 471 487.512 471 477L471 412L459 412L459 480C459 487.112 461.271 499.189 454.856 504.146C446.782 510.384 421.805 499.307 419.318 489.957C417.726 483.972 419 476.175 419 470L419 428C419 422.074 416.968 411.446 420.028 406.21C423.209 400.765 432.719 397.722 438 394.713C451.05 387.278 463.943 379.567 477 372.131C481.779 369.409 488.479 363.652 494 363.093C499.722 362.512 507.183 369.147 512.17 371.603C531.358 381.052 550.953 400.184 572 405L572 493C563.752 494.887 556.196 500.705 549 504.999C536.783 512.29 524.344 519.207 512 526.28C507.334 528.954 501.93 533.697 496.715 535.056C490.4 536.7 482.723 528.006 477 526.008C471.662 524.146 465.629 527.535 461 530L461 532C469.314 537.501 482.904 548.323 493 548.941C501.767 549.478 509.737 543.589 517 539.386C531.68 530.889 546.286 522.291 561 513.85C567.589 510.07 576.914 506.661 581.076 499.961C585.514 492.817 584 483.001 584 475L584 424C584 416.534 585.531 406.976 582.347 400.004C579.886 394.615 573.818 391.762 569 388.811C557.675 381.873 545.975 375.506 534.424 368.971C522.991 362.503 508.497 349.798 495 349.109C487.178 348.709 479.466 354.829 473 358.576C457.675 367.456 442.287 376.162 427 385.062C420.771 388.688 411.599 392.248 408.179 399.004C402.611 410.003 407 432.721 407 445C407 462.086 398.309 506.411 423 508z"/>
<path style="fill:#95c4a4; stroke:none;" d="M498 349L498 350L501 350L498 349z"/>
<path style="fill:#92d796; stroke:none;" d="M414 352L417 350L414 352z"/>
<path style="fill:#afd1b6; stroke:none;" d="M501 350L501 351L504 351L501 350z"/>
<path style="fill:#686868; stroke:none;" d="M579.667 350.333L580.333 350.667L579.667 350.333z"/>
<path style="fill:#959595; stroke:none;" d="M631 351L632 352L631 351z"/>
<path style="fill:#c9eecf; stroke:none;" d="M411 354L414 352L411 354z"/>
<path style="fill:#b7d8bb; stroke:none;" d="M510.667 355.333L511.333 355.667L510.667 355.333z"/>
<path style="fill:#a2a2a2; stroke:none;" d="M588 355L589 356L588 355z"/>
<path style="fill:#909090; stroke:none;" d="M624 355L625 356L624 355z"/>
<path style="fill:#63b97c; stroke:none;" d="M384.667 359.333L385.333 359.667L384.667 359.333z"/>
<path style="fill:#848484; stroke:none;" d="M822.667 361.333L823.333 361.667L822.667 361.333z"/>
<path style="fill:#b5b5b5; stroke:none;" d="M818 362L818 363L822 363L818 362z"/>
<path style="fill:#afafaf; stroke:none;" d="M604 364L604 365L609 365L604 364z"/>
<path style="fill:#ccdece; stroke:none;" d="M530 366L533 368L530 366z"/>
<path style="fill:#8bc499; stroke:none;" d="M508.667 369.333L509.333 369.667L508.667 369.333z"/>
<path style="fill:#9ccba9; stroke:none;" d="M534.667 369.333L535.333 369.667L534.667 369.333z"/>
<path style="fill:#70a883; stroke:none;" d="M516 373L516 374L520 376L516 373z"/>
<path style="fill:#98dfa5; stroke:none;" d="M470.667 375.333L471.333 375.667L470.667 375.333z"/>
<path style="fill:#99c5a4; stroke:none;" d="M440 377L440 378L444 377L440 377z"/>
<path style="fill:#7bbe93; stroke:none;" d="M521 376L524 378L521 376z"/>
<path style="fill:#ade5c0; stroke:none;" d="M550.667 378.333L551.333 378.667L550.667 378.333z"/>
<path style="fill:#c4e5ca; stroke:none;" d="M453 386L456 384L453 386z"/>
<path style="fill:#58a672; stroke:none;" d="M605 388.654C588.205 393.847 596.783 420.596 614 415.196C631.977 409.557 622.371 383.282 605 388.654z"/>
<path style="fill:#9bc2a3; stroke:none;" d="M612.667 388.333L613.333 388.667L612.667 388.333z"/>
<path style="fill:#b4eac6; stroke:none;" d="M446.667 389.333L447.333 389.667L446.667 389.333z"/>
<path style="fill:#c0ddc7; stroke:none;" d="M606 390L606 391L612 391L606 390z"/>
<path style="fill:#fffcff; stroke:none;" d="M604.094 391.858C591.18 397.582 601.469 419.253 614.957 412.427C628.342 405.654 617.928 385.726 604.094 391.858z"/>
<path style="fill:#8ce0a2; stroke:none;" d="M574.667 392.333L575.333 392.667L574.667 392.333z"/>
<path style="fill:#bddfc6; stroke:none;" d="M576.667 393.333L577.333 393.667L576.667 393.333z"/>
<path style="fill:#9fcba7; stroke:none;" d="M604 394L604 410L608 410L608 404L612 404L612 403L607 403L607 409L605 409L604 394z"/>
<path style="fill:#4ca062; stroke:none;" d="M605 394L605 409L607 409L607 403L612 403L615 410L613 403L613 402L613 401L615 395L605 394z"/>
<path style="fill:#abddb8; stroke:none;" d="M612.667 394.333L613.333 394.667L612.667 394.333z"/>
<path style="fill:#8cc39b; stroke:none;" d="M608 396L608 397L612 397L608 396z"/>
<path style="fill:#a5bea8; stroke:none;" d="M615 396L615 400L616 400L615 396z"/>
<path style="fill:#aacbae; stroke:none;" d="M598 397L598 400L599 400L598 397z"/>
<path style="fill:#aecbac; stroke:none;" d="M607 397L607 401L608 401L607 397z"/>
<path style="fill:#fffaff; stroke:none;" d="M608 397L608 401L612 401L612 397L608 397z"/>
<path style="fill:#aeceb6; stroke:none;" d="M582.333 398.667L582.667 399.333L582.333 398.667z"/>
<path style="fill:#b5d2b4; stroke:none;" d="M595 398L595 405L596 405L595 398z"/>
<path style="fill:#a1cbb5; stroke:none;" d="M621 399L621 405L622 405L621 399z"/>
<path style="fill:#8dc49a; stroke:none;" d="M583 401L583 404L584 404L583 401z"/>
<path style="fill:#96cda3; stroke:none;" d="M613.333 401.667L613.667 402.333L613.333 401.667z"/>
<path style="fill:#6ba87e; stroke:none;" d="M406 402L406 496L407 496L407 431L406 402z"/>
<path style="fill:#cee5d5; stroke:none;" d="M584 404L584 494L585 494L585 432L584 404z"/>
<path style="fill:#9bcaa6; stroke:none;" d="M598 404L598 407L599 407L598 404z"/>
<path style="fill:#b0ceb2; stroke:none;" d="M419 405L419 493L420 493L420 432L419 405z"/>
<path style="fill:#ddeede; stroke:none;" d="M570 405L570 493L571 493L571 432L570 405z"/>
<path style="fill:#76b48b; stroke:none;" d="M571 405L571 493L572 493L572 432L571 405z"/>
<path style="fill:#abccad; stroke:none;" d="M596.333 406.667L596.667 407.333L596.333 406.667z"/>
<path style="fill:#89cca1; stroke:none;" d="M615 406L615 410L616 410L615 406z"/>
<path style="fill:#adc5af; stroke:none;" d="M506 409L506 410L523 410L506 409z"/>
<path style="fill:#c3d5bf; stroke:none;" d="M501 410L501 411L504 411L501 410z"/>
<path style="fill:#41a05e; stroke:none;" d="M479 462C479.208 487.145 501.828 490.008 522 490C533.861 489.995 548.621 486.631 553.181 474C562.286 448.782 532.736 443.605 515 441.831C509.174 441.248 498.215 441.157 496.453 433.957C494.668 426.664 503.517 423.611 509 422.616C520.64 420.502 535.829 423.334 538 437L551 437C550.912 406.304 496.396 397.812 483.729 424C482.176 427.211 481.974 430.488 482.005 434C482.279 465.653 525.288 445.605 538.393 463.225C542.246 468.406 536.598 473.78 531.999 475.601C523.521 478.958 510.511 479.683 502.001 476.005C495.494 473.194 496.025 466.653 491.276 463.028C488.429 460.854 482.393 462 479 462z"/>
<path style="fill:#c1d7ca; stroke:none;" d="M459 411L459 412L471 412L459 411z"/>
<path style="fill:#b3d3bc; stroke:none;" d="M531.667 411.333L532.333 411.667L531.667 411.333z"/>
<path style="fill:#8dc09f; stroke:none;" d="M458 412L458 499L459 499L459 439L458 412z"/>
<path style="fill:#73af7c; stroke:none;" d="M471 412L470 507L471 507C475.876 486.52 472 461.052 472 440C472 431.729 474.206 419.639 471 412z"/>
<path style="fill:#b4d7b7; stroke:none;" d="M534.667 412.333L535.333 412.667L534.667 412.333z"/>
<path style="fill:#ececec; stroke:none;" d="M472 413L472 499L473 499L473 440L472 413z"/>
<path style="fill:#a4c1a5; stroke:none;" d="M613.667 415.333L614.333 415.667L613.667 415.333z"/>
<path style="fill:#d3d5d4; stroke:none;" d="M608 416L608 417L612 417L608 416z"/>
<path style="fill:#7eb890; stroke:none;" d="M485 420L484 423L485 420z"/>
<path style="fill:#8fc0a0; stroke:none;" d="M509 422L509 423L523 423L509 422z"/>
<path style="fill:#abcbb4; stroke:none;" d="M504.667 423.333L505.333 423.667L504.667 423.333z"/>
<path style="fill:#7eac88; stroke:none;" d="M524 423L524 424L528 424L524 423z"/>
<path style="fill:#97b9a1; stroke:none;" d="M528.667 424.333L529.333 424.667L528.667 424.333z"/>
<path style="fill:#99c8a8; stroke:none;" d="M482.333 425.667L482.667 426.333L482.333 425.667z"/>
<path style="fill:#8fbc9b; stroke:none;" d="M549.333 425.667L549.667 426.333L549.333 425.667z"/>
<path style="fill:#cdf1d7; stroke:none;" d="M496 436L497 436L500 426C495.849 428.289 496.016 431.579 496 436z"/>
<path style="fill:#b4dbc0; stroke:none;" d="M550.333 427.667L550.667 428.333L550.333 427.667z"/>
<path style="fill:#a1c5a9; stroke:none;" d="M481 428L481 438L482 438L481 428z"/>
<path style="fill:#7fd999; stroke:none;" d="M536.333 430.667L536.667 431.333L536.333 430.667z"/>
<path style="fill:#8bc99a; stroke:none;" d="M551 432L551 437L552 437L551 432z"/>
<path style="fill:#a1c1ac; stroke:none;" d="M537 433L537 436L538 436L537 433z"/>
<path style="fill:#88ad8e; stroke:none;" d="M538 437L538 438L551 438L538 437z"/>
<path style="fill:#adc8b5; stroke:none;" d="M501.667 439.333L502.333 439.667L501.667 439.333z"/>
<path style="fill:#a0cbad; stroke:none;" d="M504 440L504 441L509 441L504 440z"/>
<path style="fill:#cae3d0; stroke:none;" d="M512 441L512 442L517 442L512 441z"/>
<path style="fill:#92c79d; stroke:none;" d="M493 451L493 452L498 453L498 452L493 451z"/>
<path style="fill:#6bac81; stroke:none;" d="M504 454L504 455L512 455L504 454z"/>
<path style="fill:#a1c3aa; stroke:none;" d="M508 455L508 456L515 456L508 455z"/>
<path style="fill:#9abea2; stroke:none;" d="M518 456L518 457L522 457L518 456z"/>
<path style="fill:#98c4a3; stroke:none;" d="M524 457L524 458L528 458L524 457z"/>
<path style="fill:#adc9b0; stroke:none;" d="M554 460L554 470L555 470L554 460z"/>
<path style="fill:#acceb3; stroke:none;" d="M480 461L480 462L492 462L480 461z"/>
<path style="fill:#90c1a3; stroke:none;" d="M492.333 462.667L492.667 463.333L492.333 462.667z"/>
<path style="fill:#b3d4b9; stroke:none;" d="M493 465L493 468L494 468L493 465z"/>
<path style="fill:#bfd5c9; stroke:none;" d="M479 469L479 472L480 472L479 469z"/>
<path style="fill:#dce9df; stroke:none;" d="M507 477L507 478L526 478L507 477z"/>
<path style="fill:#9cd8b2; stroke:none;" d="M542.667 485.333L543.333 485.667L542.667 485.333z"/>
<path style="fill:#6da77f; stroke:none;" d="M493 486L493 487L500 489L500 488L493 486z"/>
<path style="fill:#b7b7b7; stroke:none;" d="M535.667 488.333L536.333 488.667L535.667 488.333z"/>
<path style="fill:#9fccab; stroke:none;" d="M501 489L501 490L504 490L501 489z"/>
<path style="fill:#9acca9; stroke:none;" d="M531 489L531 490L534 490L531 489z"/>
<path style="fill:#a8cdae; stroke:none;" d="M505 490L505 491L510 491L505 490z"/>
<path style="fill:#64a279; stroke:none;" d="M510 490L510 491L526 491L510 490z"/>
<path style="fill:#7ab88f; stroke:none;" d="M583 494L582 499L583 499L583 494z"/>
<path style="fill:#bedfc2; stroke:none;" d="M430.667 499.333L431.333 499.667L430.667 499.333z"/>
<path style="fill:#7bba9b; stroke:none;" d="M457 500L456 504L457 504L457 500z"/>
<path style="fill:#73b18c; stroke:none;" d="M420 508L423 510L420 508z"/>
<path style="fill:#8ed0a2; stroke:none;" d="M469 508L468 512L469 512L469 508z"/>
<path style="fill:#91d19f; stroke:none;" d="M424.667 511.333L425.333 511.667L424.667 511.333z"/>
<path style="fill:#7cb98d; stroke:none;" d="M427 512L430 514L427 512z"/>
<path style="fill:#9fdba5; stroke:none;" d="M550.667 519.333L551.333 519.667L550.667 519.333z"/>
<path style="fill:#98a39b; stroke:none;" d="M443 520L443 521L456 521L443 520z"/>
<path style="fill:#add5bd; stroke:none;" d="M472 524L472 525L476 525L472 524z"/>
<path style="fill:#bcd5c2; stroke:none;" d="M470.667 525.333L471.333 525.667L470.667 525.333z"/>
<path style="fill:#c5e1c8; stroke:none;" d="M533 530L536 528L533 530z"/>
<path style="fill:#c5e2c6; stroke:none;" d="M488 532L491 534L488 532z"/>
<path style="fill:#91b49c; stroke:none;" d="M496.667 535.333L497.333 535.667L496.667 535.333z"/>
<path style="fill:#7bbf86; stroke:none;" d="M479 542L482 544L479 542z"/>
<path style="fill:#b2d6ba; stroke:none;" d="M499.667 548.333L500.333 548.667L499.667 548.333z"/>
</svg>
